<svg id="Layer_4" data-name="Layer 4" xmlns="http://www.w3.org/2000/svg" width="99.83" height="80.83" viewBox="0 0 99.83 80.83">
  <defs>
    <style>
      .cls-1 {
        fill: #acb7c1;
      }
    </style>
  </defs>
  <g id="SvgjsG2024">
    <path class="cls-1" d="M52.79,30.26a3.08,3.08,0,0,0,3.08-3.08V17.72a3.08,3.08,0,1,0-6.16,0v9.46A3.08,3.08,0,0,0,52.79,30.26Z"/>
    <path class="cls-1" d="M45.23,30.26a3.08,3.08,0,0,0,3.08-3.08V16.29a3.08,3.08,0,0,0-6.16,0V27.18A3.08,3.08,0,0,0,45.23,30.26Z"/>
    <path class="cls-1" d="M37.66,30.26a3.08,3.08,0,0,0,3.08-3.08V20.56a3.08,3.08,0,1,0-6.15,0v6.62A3.08,3.08,0,0,0,37.66,30.26Z"/>
    <path class="cls-1" d="M62.61,21.32a3,3,0,0,0-5.09,3.28l3.09,4.78c-4.75.87-12.31,3-14.91,7.81C42.49,43.17,44,46.9,44,46.9H42.31a16.18,16.18,0,0,1,.45-7.46,21.9,21.9,0,0,1,5-7.71H34.54v8.7a12.48,12.48,0,0,0,1.21,4.44,7.51,7.51,0,0,0,3,2.68V80.83H61L56.54,47.89h0L64,41.27a3.13,3.13,0,0,0,.81-1.16c3.77-9.61,3.76-9.61,2.91-10.86Z"/>
    <polygon class="cls-1" points="27.41 0 16.92 0 16.92 49.26 27.41 49.26 27.41 29.33 32.79 29.33 32.79 20.57 27.41 20.57 27.41 0"/>
    <polygon class="cls-1" points="8 20.57 -0.17 20.57 -0.17 29.33 8 29.33 8 43.24 14.8 43.24 14.8 6.02 8 6.02 8 20.57"/>
    <polygon class="cls-1" points="72.26 20.57 64.57 20.56 70.13 29.33 72.26 29.33 72.26 49.26 82.74 49.26 82.74 0 72.26 0 72.26 20.57"/>
    <polygon class="cls-1" points="91.66 20.57 91.66 6.02 84.86 6.02 84.86 43.24 91.66 43.24 91.66 29.33 99.83 29.33 99.83 20.57 91.66 20.57"/>
  </g>
</svg>
