<svg id="Layer_2" data-name="Layer 2" xmlns="http://www.w3.org/2000/svg" width="184.13" height="104.78" viewBox="0 0 184.13 104.78">
  <defs>
    <style>
      .cls-1, .cls-2 {
        fill: #acb7c1;
      }

      .cls-2 {
        font-size: 22.77px;
        font-family: TradeGothicNextLTPro-Lt, Trade Gothic Next LT Pro;
        letter-spacing: -0.07em;
      }

      .cls-3 {
        letter-spacing: -0.06em;
      }

      .cls-4, .cls-5 {
        fill: #d00c2a;
      }

      .cls-5 {
        font-size: 37.77px;
        font-family: TradeGothicLT-Bold, TradeGothic LT Bold;
        font-weight: 700;
      }
    </style>
  </defs>
  <g>
    <path class="cls-1" d="M157.21,184.77a3.08,3.08,0,0,0,3.07-3.08v-9.46a3.08,3.08,0,1,0-6.15,0v9.46A3.08,3.08,0,0,0,157.21,184.77Z" transform="translate(-59.21 -154.51)"/>
    <path class="cls-1" d="M149.65,184.77a3.08,3.08,0,0,0,3.07-3.08V170.8a3.08,3.08,0,0,0-6.15,0v10.89A3.07,3.07,0,0,0,149.65,184.77Z" transform="translate(-59.21 -154.51)"/>
    <path class="cls-1" d="M142.08,184.77a3.08,3.08,0,0,0,3.08-3.08v-6.62a3.08,3.08,0,1,0-6.16,0v6.62A3.08,3.08,0,0,0,142.08,184.77Z" transform="translate(-59.21 -154.51)"/>
    <path class="cls-1" d="M167,175.83a3,3,0,0,0-5.08,3.28l3.08,4.78c-4.74.87-12.31,3-14.9,7.81-3.22,6-1.68,9.71-1.68,9.71h-1.72a16.26,16.26,0,0,1,.46-7.46,21.8,21.8,0,0,1,5-7.71H139v8.7a12.36,12.36,0,0,0,1.2,4.44,7.51,7.51,0,0,0,3,2.68v33.28h22.22L161,202.4h0l7.46-6.62a3,3,0,0,0,.81-1.16C173,185,173,185,172.14,183.76Z" transform="translate(-59.21 -154.51)"/>
    <polygon class="cls-1" points="72.61 0 62.13 0 62.13 49.26 72.61 49.26 72.61 29.33 77.99 29.33 77.99 20.57 72.61 20.57 72.61 0"/>
    <polygon class="cls-1" points="53.2 20.57 45.03 20.57 45.03 29.33 53.2 29.33 53.2 43.24 60.01 43.24 60.01 6.02 53.2 6.02 53.2 20.57"/>
    <polygon class="cls-1" points="117.46 20.57 109.77 20.56 115.33 29.33 117.46 29.33 117.46 49.26 127.94 49.26 127.94 0 117.46 0 117.46 20.57"/>
    <polygon class="cls-1" points="136.87 20.57 136.87 6.02 130.06 6.02 130.06 43.24 136.87 43.24 136.87 29.33 145.03 29.33 145.03 20.57 136.87 20.57"/>
  </g>
  <text class="cls-2" transform="translate(0 100.2)">PER<tspan class="cls-3" x="36.38" y="0">S</tspan><tspan x="47.69" y="0">ONAL TRAINER</tspan></text>
  <g>
    <g>
      <path class="cls-4" d="M69.05,214a7.9,7.9,0,0,0-1.12-2.79,2,2,0,0,0-1.65-.87,1.74,1.74,0,0,0-1.55.79,3.86,3.86,0,0,0-.54,2.19,2.74,2.74,0,0,0,.63,1.79,9.42,9.42,0,0,0,1.57,1.5c.62.48,1.3,1,2,1.53a12.51,12.51,0,0,1,2,1.9A10,10,0,0,1,72,222.64a9.24,9.24,0,0,1,.64,3.63,11.44,11.44,0,0,1-.43,3.21A7.23,7.23,0,0,1,71,231.93a5.43,5.43,0,0,1-2,1.57,6.22,6.22,0,0,1-2.67.55,5.35,5.35,0,0,1-4-1.81,11.83,11.83,0,0,1-2.45-5.86l3.73-1.09a9.67,9.67,0,0,0,.48,2.09,4.93,4.93,0,0,0,.73,1.38,2.61,2.61,0,0,0,.86.76,1.93,1.93,0,0,0,.87.22,2,2,0,0,0,1.66-.85,3.81,3.81,0,0,0,.67-2.4,3.85,3.85,0,0,0-.63-2.21,8.66,8.66,0,0,0-1.57-1.71c-.62-.53-1.3-1.06-2-1.57a13.15,13.15,0,0,1-2-1.78A9.07,9.07,0,0,1,61,216.9a7.53,7.53,0,0,1-.63-3.25,9.25,9.25,0,0,1,1.49-5.59,5.79,5.79,0,0,1,6.74-1.55,5.52,5.52,0,0,1,1.78,1.38A7.81,7.81,0,0,1,71.7,210a11.61,11.61,0,0,1,.75,2.64Z" transform="translate(-59.21 -154.51)"/>
      <path class="cls-4" d="M79.4,225.59a5,5,0,0,0,.66,3.06,2.47,2.47,0,0,0,3.62,0,5,5,0,0,0,.66-3.06v-1.82h3.78v1.14a16.79,16.79,0,0,1-.46,4.27A8,8,0,0,1,86.37,232a4.89,4.89,0,0,1-2,1.57,6.75,6.75,0,0,1-5,0,4.87,4.87,0,0,1-2-1.57,8,8,0,0,1-1.29-2.81,16.31,16.31,0,0,1-.47-4.27v-9.75a16.31,16.31,0,0,1,.47-4.27,8,8,0,0,1,1.29-2.81,4.87,4.87,0,0,1,2-1.57,6.75,6.75,0,0,1,5,0,4.89,4.89,0,0,1,2,1.57,8,8,0,0,1,1.29,2.81,16.79,16.79,0,0,1,.46,4.27v.08H84.34v-.76a5,5,0,0,0-.66-3.06,2.47,2.47,0,0,0-3.62,0,5,5,0,0,0-.66,3.06Z" transform="translate(-59.21 -154.51)"/>
      <path class="cls-4" d="M90.87,215.16a16.31,16.31,0,0,1,.47-4.27,8,8,0,0,1,1.29-2.81,4.8,4.8,0,0,1,2-1.57,6.75,6.75,0,0,1,5.05,0,4.89,4.89,0,0,1,2,1.57,8,8,0,0,1,1.29,2.81,16.79,16.79,0,0,1,.46,4.27v9.75a16.79,16.79,0,0,1-.46,4.27,8,8,0,0,1-1.29,2.81,4.89,4.89,0,0,1-2,1.57,6.75,6.75,0,0,1-5.05,0,4.8,4.8,0,0,1-2-1.57,8,8,0,0,1-1.29-2.81,16.31,16.31,0,0,1-.47-4.27Zm3.79,10.43a5,5,0,0,0,.66,3.06,2.47,2.47,0,0,0,3.62,0,5,5,0,0,0,.66-3.06V214.48a5,5,0,0,0-.66-3.06,2.47,2.47,0,0,0-3.62,0,5,5,0,0,0-.66,3.06Z" transform="translate(-59.21 -154.51)"/>
      <path class="cls-4" d="M117.93,206.4V211h-4.42v22.66h-3.79V211h-4.41V206.4Z" transform="translate(-59.21 -154.51)"/>
      <path class="cls-4" d="M131.65,206.4V211h-4.42v22.66h-3.78V211H119V206.4Z" transform="translate(-59.21 -154.51)"/>
    </g>
    <text class="cls-5" transform="translate(117.02 78.78) scale(0.73 1)">THOM</text>
  </g>
</svg>
